<?xml version="1.0" encoding="UTF-8"?>
<svg id="repo-card-maker" xmlns="http://www.w3.org/2000/svg" version="1.1" viewBox="0 0 512 512" width="512" height="512">
  <path fill="#ef4444" d="M455.11,56.89H56.89C25.51,56.89,0,82.4,0,113.78v284.44c0,31.38,25.51,56.89,56.89,56.89h398.22c31.38,0,56.89-25.51,56.89-56.89V113.78c0-31.38-25.51-56.89-56.89-56.89ZM74.67,154.67h99.56c11.82,0,21.33,9.51,21.33,21.33s-9.51,21.33-21.33,21.33h-99.56c-11.82,0-21.33-9.51-21.33-21.33s9.51-21.33,21.33-21.33ZM74.67,231.11h126.22c11.82,0,21.33,9.51,21.33,21.33s-9.51,21.33-21.33,21.33h-126.22c-11.82,0-21.33-9.51-21.33-21.33s9.51-21.33,21.33-21.33ZM117.33,401.78h-42.67c-11.82,0-21.33-9.51-21.33-21.33s9.51-21.33,21.33-21.33h42.67c11.82,0,21.33,9.51,21.33,21.33s-9.51,21.33-21.33,21.33ZM286.22,401.78h-83.56c-11.82,0-21.33-9.51-21.33-21.33s9.51-21.33,21.33-21.33h83.56c11.82,0,21.33,9.51,21.33,21.33s-9.51,21.33-21.33,21.33ZM437.33,401.78h-65.78c-11.82,0-21.33-9.51-21.33-21.33s9.51-21.33,21.33-21.33h65.78c11.82,0,21.33,9.51,21.33,21.33s-9.51,21.33-21.33,21.33ZM455.32,209.88l-33.74,58.96c-4.49,7.86-12.87,12.69-21.92,12.69h-67.21c-9.05,0-17.43-4.84-21.92-12.69l-33.74-58.96c-4.45-7.75-4.45-17.29,0-25.08l33.74-58.96c4.49-7.86,12.87-12.69,21.92-12.69h67.21c9.05,0,17.43,4.84,21.92,12.69l33.74,58.96c4.45,7.75,4.45,17.29,0,25.08h0Z"/>
</svg>