<?xml version="1.0" encoding="UTF-8"?>
<svg id="Layer_1" xmlns="http://www.w3.org/2000/svg" version="1.1" viewBox="0 0 576 576">
  <!-- Generator: Adobe Illustrator 30.0.0, SVG Export Plug-In . SVG Version: 2.1.1 Build 123)  -->
  <path d="M309.7,103.6l-64.4,64.4,33.4,33.4c12.5,12.5,12.5,32.8,0,45.3s-32.8,12.5-45.3,0l-33.4-33.4-96.4,96.4c-2.9,2.9-5.1,6.5-6.3,10.3h321.5l53.7-53.7c4.9-4.9,7.6-11.5,7.6-18.3s-2.7-13.5-7.6-18.3l-126.2-126.1c-4.8-4.9-11.4-7.6-18.3-7.6s-13.5,2.7-18.3,7.6ZM58.3,264.4l96.4-96.4-49.4-49.4c-12.5-12.5-12.5-32.8,0-45.3s32.8-12.5,45.3,0l49.4,49.4,64.4-64.4c16.9-16.8,39.7-26.3,63.6-26.3s46.7,9.5,63.6,26.3l126.1,126.1c16.8,16.9,26.3,39.7,26.3,63.6s-9.5,46.7-26.3,63.6l-206.1,206.1c-16.9,16.8-39.7,26.3-63.6,26.3s-46.7-9.5-63.6-26.3l-126.1-126.1c-16.8-16.9-26.3-39.7-26.3-63.6s9.5-46.7,26.3-63.6ZM512,576c-35.3,0-64-28.7-64-64,0-25.2,32.6-79.6,51.2-108.7,6-9.4,19.5-9.4,25.5,0,18.7,29.1,51.2,83.5,51.2,108.7,0,35.3-28.7,64-64,64h.1Z"/>
</svg>